{
  "asset": {
    "version": "2.0",
    "generator": "THREE.GLTFExporter"
  },
  "scenes": [
    {
      "nodes": [
        1
      ],
      "name": "AuxScene"
    }
  ],
  "scene": 0,
  "nodes": [
    {
      "matrix": [
        0.9659258262890683,
        0,
        0.25881904510252074,
        0,
        0,
        1,
        0,
        0,
        -0.25881904510252074,
        0,
        0.9659258262890683,
        0,
        0,
        0.1967078298330307,
        0,
        1
      ],
      "name": "Test_Jar",
      "mesh": 0
    },
    {
      "children": [
        0
      ]
    }
  ],
  "bufferViews": [
    {
      "buffer": 0,
      "byteOffset": 0,
      "byteLength": 13248,
      "target": 34962,
      "byteStride": 12
    },
    {
      "buffer": 0,
      "byteOffset": 13248,
      "byteLength": 13248,
      "target": 34962,
      "byteStride": 12
    },
    {
      "buffer": 0,
      "byteOffset": 26496,
      "byteLength": 8832,
      "target": 34962,
      "byteStride": 8
    },
    {
      "buffer": 0,
      "byteOffset": 35328,
      "byteLength": 2208,
      "target": 34963
    }
  ],
  "buffers": [
    {
      "byteLength": 37536,
      "uri": "data:application/octet-stream;base64,"
    }
  ],
  "accessors": [
    {
      "bufferView": 0,
      "componentType": 5126,
      "count": 1104,
      "max": [
        5.2446722984313965,
        10.037005424499512,
        7.171245098114014
      ],
      "min": [
        -5.2446722984313965,
        -0.1967078298330307,
        -7.463267803192139
      ],
      "type": "VEC3"
    },
    {
      "bufferView": 1,
      "componentType": 5126,
      "count": 1104,
      "max": [
        0.9999848008155823,
        1,
        0.9995683431625366
      ],
      "min": [
        -0.9999552369117737,
        -1,
        -0.9995683431625366
      ],
      "type": "VEC3"
    },
    {
      "bufferView": 2,
      "componentType": 5126,
      "count": 1104,
      "max": [
        1,
        1
      ],
      "min": [
        0,
        0
      ],
      "type": "VEC2"
    },
    {
      "bufferView": 3,
      "componentType": 5123,
      "count": 1104,
      "max": [
        1103
      ],
      "min": [
        0
      ],
      "type": "SCALAR"
    }
  ],
  "materials": [
    {
      "pbrMetallicRoughness": {
        "baseColorFactor": [
          0.0819999945461749,
          0.2532324113433422,
          0.4000000059604645,
          1
        ],
        "metallicFactor": 0.5,
        "roughnessFactor": 0.5
      },
      "name": "test1"
    }
  ],
  "meshes": [
    {
      "primitives": [
        {
          "mode": 4,
          "attributes": {
            "POSITION": 0,
            "NORMAL": 1,
            "TEXCOORD_0": 2
          },
          "indices": 3,
          "material": 0
        }
      ]
    }
  ]
}